<svg id="svg" viewbox="58.44999694824219,6.590000152587891,215.1900177001953,120.1199951171875" style="height:120.1199951171875"><path d="M 95.56,25.12 L 95.56,25.03 L 95.58,24.65 L 95.7,24.16 L 95.7,24.03 L 95.61,23.88 L 95.04,23.54 L 93.76,22.93 L 92.08,22.47 L 88.86,22.01 L 86.39,22.07 L 83.2,22.68 L 80.08,23.85 L 76.89,25.87 L 73.79,28.78 L 71.04,32.31 L 69.17,36.17 L 68.45,39.35 L 68.58,43.24 L 69.79,46.64 L 71.95,49.58 L 75.23,51.73 L 79.29,53.2 L 83.95,53.78 L 88.89,53.38 L 93.26,52.31 L 96.83,50.6 L 99.61,48.18 L 101.39,45.3 L 102.11,42.78 L 102.61,38.74 L 102.73,35.98 L 102.58,32.61 L 102.17,29.36 L 101.39,26.61 L 100.17,24.83 L 98.98,24.12 L 97.73,24.37 L 96.73,25.04 L 96.48,25.29" fill="none" stroke="#6190e8" stroke-width="2"></path><path d="M 86.65,36.56 L 86.62,36.39 L 86.89,36.17 L 87.01,37.12 L 87.2,40.49 L 87.54,43.15 L 88.01,45.85 L 88.2,47.56 L 88.2,48.27 L 88.29,48.33 L 88.58,47.84" fill="none" stroke="#6190e8" stroke-width="2"></path><path d="M 111.18,37.35 L 111.7,37.24 L 113.64,36.81 L 118.04,36.23 L 121.79,35.95 L 127.83,35.68 L 134.36,35.61 L 139.17,35.74 L 141.73,35.74 L 142.54,35.71 L 142.29,35.71" fill="none" stroke="#6190e8" stroke-width="2"></path><path d="M 133.08,30.48 L 133.14,30.53 L 134.54,30.59 L 137.11,31.17 L 139.48,32.4 L 140.79,33.93 L 141.14,36.75 L 140.01,38.83 L 138.54,40.12 L 136.83,41.16 L 136.39,41.16 L 136.42,41.04" fill="none" stroke="#6190e8" stroke-width="2"></path><path d="M 157.89,34.26 L 158.23,31.45 L 160.39,29 L 163.33,27.77 L 165.79,28.29 L 166.7,30.96 L 165.33,35.06 L 163.17,38.52 L 161.11,41.43 L 160.42,42.45 L 161.11,42.32 L 164.29,40.94 L 169.01,39.2 L 173.73,37.61 L 177.51,36.44" fill="none" stroke="#6190e8" stroke-width="2"></path><path d="M 171.11,18.93 L 169.61,18.12 L 165.26,16.96 L 159.92,17.51 L 154.2,19.99 L 148.95,24.52 L 145.29,30.13 L 144.14,34.79 L 145.58,41.65 L 148.36,45.51 L 154.7,49.74 L 160.04,51.39 L 167.54,51.67 L 174.29,49.92 L 179.45,46.67 L 182.45,41.83 L 183.08,35.92 L 181.67,30.01 L 179.51,25.87 L 175.64,21.7 L 173.33,20.48 L 170.76,21.09 L 170.26,21.52" fill="none" stroke="#6190e8" stroke-width="2"></path><path d="M 165.52,57.56 L 165.61,57.24 L 166.08,55.77 L 166.14,55.5 L 165.51,55.8 L 163.64,57.61 L 160.95,60.98 L 157.7,65.18 L 154.39,69.31 L 151.95,72.65 L 150.67,74.55 L 149.83,75.93 L 149.58,76.21 L 149.48,76.09 L 149.52,75.86" fill="none" stroke="#6190e8" stroke-width="2"></path><path d="M 145.71,68.9 L 145.54,68.49 L 145.48,67.91 L 145.29,68.55 L 144.48,70.94 L 143.67,75.17 L 143.67,79.73 L 144.45,82.31 L 146.92,84.05 L 149.7,83.78 L 153.73,82.27 L 156.95,80.62 L 158.76,79.55 L 159.17,79.3" fill="none" stroke="#6190e8" stroke-width="2"></path><path d="M 120.02,90.04 L 119.45,89.57 L 119.14,88.46 L 120.33,87.02 L 122.51,86.1 L 124.76,86.35 L 125.86,88.06 L 125.04,90.98 L 122.79,93.98 L 121.08,95.6 L 120.08,96.52 L 120.89,96.7 L 123.42,97.41 L 125.54,99.46 L 126.04,102.34 L 124.54,104.92 L 122.26,106.14 L 118.2,106.14 L 115.92,105.07 L 114.04,102.95 L 114.14,101.45 L 114.36,100.98" fill="none" stroke="#6190e8" stroke-width="2"></path><path d="M 132.15,88.12 L 128.67,84.45 L 125.04,81.48 L 121.17,79.76 L 118.01,79.73 L 112.58,82.46 L 108.79,85.83 L 104.83,91.77 L 102.67,99.12 L 103.04,105.8 L 105.98,111.07 L 109.86,114.23 L 117.36,116.71 L 123.08,116.34 L 131.23,113.03 L 135.04,109.48 L 137.08,103.81 L 136.48,97.47 L 133.95,92.23 L 130.45,88.74 L 126.79,86.99 L 126.01,86.84" fill="none" stroke="#6190e8" stroke-width="2"></path><path d="M 99.43,96.57 L 99.33,96.47 L 99.01,96.12 L 98.83,95.23 L 98.17,93.18 L 96.92,89.44 L 95.01,84.27 L 92.86,79.03 L 91.23,74.74 L 90.45,71.67 L 90.33,69.99 L 90.33,68.61 L 90.33,68.27 L 90.33,68.4 L 90.23,68.89" fill="none" stroke="#6190e8" stroke-width="2"></path><path d="M 88.53,68.16 L 88.23,68.12 L 87.45,68.4 L 86.26,69.56 L 83.95,72.53 L 83.04,74.28 L 82.83,75.17 L 84.33,74.19 L 87.58,71.34 L 90.61,68.4 L 92.89,66.59 L 94.76,66.13 L 95.92,66.59 L 99.95,69.07 L 100.7,69.47" fill="none" stroke="#6190e8" stroke-width="2"></path><path d="M 187.93,38.54 L 190.86,38.34 L 196.45,37.88 L 202.86,37.24 L 208.79,36.47 L 213.64,35.71 L 216.36,35.28 L 217.14,35.03 L 216.29,34.69 L 215.92,34.6" fill="none" stroke="#6190e8" stroke-width="2"></path><path d="M 210.24,31.16 L 210.15,30.85 L 210.17,29.79 L 211.54,29.12 L 213.64,29.12 L 215.76,30.16 L 216.98,32.27 L 217.04,35 L 216.42,36.96 L 215.14,38.98 L 214.39,39.63 L 214.14,39.78" fill="none" stroke="#6190e8" stroke-width="2"></path><path d="M 234.14,26.38 L 234.33,26.24 L 234.48,26.45 L 233.54,28.29 L 232.08,31.42 L 231.48,34.27 L 232.17,37.15 L 234.26,38.4 L 237.14,37.91 L 239.58,36.32 L 241.08,34.76 L 241.7,34.17 L 241.79,34.94 L 241.67,37.15 L 241.67,39.5 L 242.33,42.84 L 242.58,43.27" fill="none" stroke="#6190e8" stroke-width="2"></path><path d="M 251.24,28.92 L 251.2,24.43 L 250.29,21.21 L 247.42,18.12 L 243.23,16.59 L 239.48,17.11 L 233.61,20.79 L 230.29,24.8 L 227.92,30.8 L 227.86,37.12 L 230.17,43.21 L 234.58,47.75 L 240.17,49.55 L 246.42,48.3 L 252.01,44.53 L 255.14,39.2 L 255.76,34.63 L 254.04,28.81 L 252.08,26.45 L 248.26,25.87 L 247.42,26.12" fill="none" stroke="#6190e8" stroke-width="2"></path><path d="M 237.61,52.27 L 237.73,51.94 L 238.01,51.33 L 238.04,51.36 L 238.04,52.22 L 237.79,55.47 L 237.83,58.56 L 238.04,62.36 L 238.48,65.33 L 238.64,67.02 L 238.54,67.26" fill="none" stroke="#6190e8" stroke-width="2"></path><path d="M 226.33,62.8 L 226.17,62.91 L 227.08,63.56 L 229.01,65.09 L 230.86,66.77 L 233.76,69.1 L 235.58,69.68 L 237.95,68.58 L 239.76,66.16 L 240.26,63.86 L 239.7,62.79 L 238.29,63.37" fill="none" stroke="#6190e8" stroke-width="2"></path><path d="M 240.67,82.23 L 239.79,81.26 L 237.89,81.05 L 236.42,82.03 L 236.54,84.69 L 238.26,88.19 L 240.11,91.19 L 241.04,92.66 L 241.2,92.97 L 240.39,91.16 L 239.01,86.41 L 238.58,83.38 L 238.7,80.83 L 239.79,79.27 L 241.83,78.54 L 244.33,78.81" fill="none" stroke="#6190e8" stroke-width="2"></path><path d="M 249.12,72.85 L 248.36,71.77 L 246.29,69.65 L 243.17,68.7 L 238.67,69.62 L 233.67,72.72 L 229.54,77.59 L 227.76,83.19 L 228.54,87.57 L 232.76,93.46 L 236.83,96.46 L 244.36,98.54 L 250.29,97.68 L 257.54,94.01 L 262.45,87.21 L 263.64,78.2 L 261.86,70.82 L 258.76,67.32 L 252.51,66.13 L 251.39,66.4" fill="none" stroke="#6190e8" stroke-width="2"></path><path d="M 241.4,93.82 L 241.08,93.24 L 241.11,91.22 L 242.08,88.56 L 243.83,86.66 L 248.08,85.12 L 251.2,85.31 L 253.98,86.99 L 254.73,90.03 L 253.14,93.37 L 249.67,95.88 L 247.45,96.7" fill="none" stroke="#6190e8" stroke-width="2"></path><path d="M 242.3,82.44 L 242.2,82.52 L 242.17,82.15 L 242.92,81.42 L 245.61,79.79 L 248.36,78.69 L 252.54,77.28 L 254.73,76.64 L 256.23,76.27 L 256.54,76.27" fill="none" stroke="#6190e8" stroke-width="2"></path></svg>  
